Madagascar.3.Europes.Most.Wanted.2012.Cam.V2.XviD-Feel-Free





Alex, Marty, Gloria and Melman are still fighting to get home to their beloved Big Apple. Their journey takes them through Europe where they find the perfect cover: a traveling circus, which they reinvent - Madagascar style. 

Genre:Animation | Adventure | Comedy
Language:English
IMDb:http://www.imdb.com/title/tt1277953/
Source:Spanish/26k Thanks!
Encoder:Tony


Format : AVI
Format/Info : Audio Video Interleave
File size : 853 MiB
Duration : 1h 23mn
Overall bit rate mode : Variable
Overall bit rate : 1 435 Kbps
Writing application : Lavf52.61.0

Video
ID : 0
Format : MPEG-4 Visual
Format profile : Advanced Simple@L5
Format settings, BVOP : 2
Format settings, QPel : No
Format settings, GMC : No warppoints
Format settings, Matrix : Default (H.263)
Muxing mode : Packed bitstream
Codec ID : XVID
Codec ID/Hint : XviD
Duration : 1h 23mn
Bit rate : 1 274 Kbps
Width : 640 pixels
Height : 352 pixels
Display aspect ratio : 16:9
Frame rate : 29.970 fps
Color space : YUV
Chroma subsampling : 4:2:0
Bit depth : 8 bits
Scan type : Progressive
Compression mode : Lossy
Bits/(Pixel*Frame) : 0.189
Stream size : 758 MiB (89%)
Writing library : XviD 64

Audio
ID : 1
Format : MPEG Audio
Format version : Version 1
Format profile : Layer 3
Codec ID : 55
Codec ID/Hint : MP3
Duration : 1h 23mn
Bit rate mode : Variable
Bit rate : 146 Kbps
Channel(s) : 2 channels
Sampling rate : 48.0 KHz
Compression mode : Lossy
Stream size : 87.1 MiB (10%)
Alignment : Aligned on interleaves
Interleave, duration : 24 ms (0.72 video frame)
Interleave, preload duration : 671 ms